{"title":"Black.Rock.2012.480p.BRRip.x264-Fastbet99","uid":8742422,"size":848602590,"categoryP":"video","categoryS":"movies","magnet":"?xt=urn:btih:d0beda6452d977642bc49f375b7d9d438bfde60b&amp;dn=Black.Rock.2012.480p.BRRip.x264-Fastbet99&amp;tr=udp%3A%2F%2Ftracker.openbittorrent.com%3A80&amp;tr=udp%3A%2F%2Fopen.demonii.com%3A1337&amp;tr=udp%3A%2F%2Ftracker.coppersurfer.tk%3A6969&amp;tr=udp%3A%2F%2Fexodus.desync.com%3A6969","seeders":1,"leechers":0,"uploader":"Fastbet99","files":-1,"time":1374823962,"description":"Black Rock (2012)\n\nIMDB Info\t\t\t\t : http://www.imdb.com/title/tt1930294/\n\nSource\t\t\t\t\t : 720p-PublicHD (Thanks)\nComplete name                            : Black.Rock.2012.480p.BRRip.x264-Fastbet99.mp4\nFormat                                   : MPEG-4\nFormat profile                           : Base Media\nCodec ID                                 : isom\nFile size                                : 809 MiB\nDuration                                 : 1h 19mn\nOverall bit rate mode                    : Variable\nOverall bit rate                         : 1 416 Kbps\n\n\nVideo\nID                                       : 1\nFormat                                   : AVC\nFormat/Info                              : Advanced Video Codec\nFormat profile                           : &lt;a class=&quot;__cf_email__&quot; href=&quot;/cdn-cgi/l/email-protection&quot; data-cfemail=&quot;470f2e202f070b736976&quot;&gt;[email&amp;#160;protected]&lt;/a&gt;&lt;script cf-hash='f9e31' type=&quot;text/javascript&quot;&gt;\n/* &lt;![CDATA[ */!function(){try{var t=&quot;currentScript&quot;in document?document.currentScript:function(){for(var t=document.getElementsByTagName(&quot;script&quot;),e=t.length;e--;)if(t[e].getAttribute(&quot;cf-hash&quot;))return t[e]}();if(t&amp;&amp;t.previousSibling){var e,r,n,i,c=t.previousSibling,a=c.getAttribute(&quot;data-cfemail&quot;);if(a){for(e=&quot;&quot;,r=parseInt(a.substr(0,2),16),n=2;a.length-n;n+=2)i=parseInt(a.substr(n,2),16)^r,e+=String.fromCharCode(i);e=document.createTextNode(e),c.parentNode.replaceChild(e,c)}}}catch(u){}}();/* ]]&gt; */&lt;/script&gt;\nFormat settings, CABAC                   : Yes\nFormat settings, ReFrames                : 4 frames\nCodec ID                                 : avc1\nCodec ID/Info                            : Advanced Video Coding\nDuration                                 : 1h 19mn\nBit rate                                 : 1 334 Kbps\nMaximum bit rate                         : 8 319 Kbps\nWidth                                    : 854 pixels\nHeight                                   : 464 pixels\nDisplay aspect ratio                     : 1.85:1\nFrame rate mode                          : Constant\nFrame rate                               : 23.976 fps\nColor space                              : YUV\nChroma subsampling                       : 4:2:0\nBit depth                                : 8 bits\nScan type                                : Progressive\nBits/(Pixel*Frame)                       : 0.140\nStream size                              : 762 MiB (94%)\nWriting library                          : x264 core 133 r2334 a3ac64b\n\n\nAudio\nID                                       : 2\nFormat                                   : AAC\nFormat/Info                              : Advanced Audio Codec\nFormat profile                           : HE-AAC / LC\nCodec ID                                 : 40\nDuration                                 : 1h 19mn\nBit rate mode                            : Variable\nBit rate                                 : 64.0 Kbps\nMaximum bit rate                         : 81.9 Kbps\nChannel(s)                               : 2 channels\nChannel positions                        : Front: L R\nSampling rate                            : 48.0 KHz / 24.0 KHz\nCompression mode                         : Lossy\nStream size                              : 36.6 MiB (5%)\nLanguage                                 : English\nEncoder\t\t\t\t\t : Fastbet99\n\n\nText #1\nID                                       : 3\nFormat                                   : mp4s\nCodec ID                                 : E0\nDuration                                 : 1h 15mn\nBit rate mode                            : Variable\nBit rate                                 : 6 008 bps\nMaximum bit rate                         : 62.7 Kbps\nStream size                              : 3.26 MiB (0%)\nLanguage                                 : English\n\n\nText #2\nID                                       : 4\nFormat                                   : mp4s\nCodec ID                                 : E0\nDuration                                 : 1h 12mn\nBit rate mode                            : Variable\nBit rate                                 : 5 856 bps\nMaximum bit rate                         : 62.7 Kbps\nStream size                              : 3.02 MiB (0%)\nLanguage                                 : English\n\n\nText #3\nID                                       : 5\nFormat                                   : mp4s\nCodec ID                                 : E0\nDuration                                 : 1h 12mn\nBit rate mode                            : Variable\nBit rate                                 : 4 896 bps\nMaximum bit rate                         : 60.5 Kbps\nStream size                              : 2.52 MiB (0%)\nLanguage                                 : Spanish\n\nScreenshots &lt;a href=&quot;\nhttp://lookpic.com/O/i2/344/7SM7kW6r.jpeg&quot; rel=&quot;nofollow&quot; target=&quot;_NEW&quot;&gt;\nhttp://lookpic.com/O/i2/344/7SM7kW6r.jpeg&lt;/a&gt;","torrent":{"xt":"urn:btih:d0beda6452d977642bc49f375b7d9d438bfde60b","amp;dn":"Black.Rock.2012.480p.BRRip.x264-Fastbet99","amp;tr":["udp%3A%2F%2Ftracker.openbittorrent.com%3A80","udp%3A%2F%2Fopen.demonii.com%3A1337","udp%3A%2F%2Ftracker.coppersurfer.tk%3A6969","udp%3A%2F%2Fexodus.desync.com%3A6969"],"infoHash":"d0beda6452d977642bc49f375b7d9d438bfde60b","infoHashBuffer":{"type":"Buffer","data":[208,190,218,100,82,217,119,100,43,196,159,55,91,125,157,67,139,253,230,11]},"announce":[],"urlList":[]}}